<svg xmlns="http://www.w3.org/2000/svg" viewBox="0 0 520 600" width="520" height="600">
  <defs>
    <clipPath id="hexClip">
      <polygon points="260,18 484,143 484,457 260,582 36,457 36,143"/>
    </clipPath>
    <linearGradient id="riverGrad" x1="0%" y1="0%" x2="100%" y2="100%">
      <stop offset="0%" stop-color="#1a6b7a"/>
      <stop offset="50%" stop-color="#0f4d6e"/>
      <stop offset="100%" stop-color="#0a3352"/>
    </linearGradient>
    <linearGradient id="bgGrad" x1="0%" y1="0%" x2="60%" y2="100%">
      <stop offset="0%" stop-color="#0d1f2d"/>
      <stop offset="100%" stop-color="#071420"/>
    </linearGradient>
    <filter id="riverGlow" x="-20%" y="-20%" width="140%" height="140%">
      <feGaussianBlur stdDeviation="6" result="blur"/>
      <feMerge><feMergeNode in="blur"/><feMergeNode in="SourceGraphic"/></feMerge>
    </filter>
    <filter id="binaryGlow">
      <feGaussianBlur stdDeviation="2.5" result="blur"/>
      <feMerge><feMergeNode in="blur"/><feMergeNode in="SourceGraphic"/></feMerge>
    </filter>
    <path id="riverCentreLine" d="M260,18 C320,80 190,150 235,230 C275,300 330,320 300,390 C270,455 200,465 245,520 C265,548 260,565 260,582" fill="none"/>
    <path id="riverLeft"       d="M245,18 C305,80 175,150 220,230 C260,300 315,320 285,390 C255,455 185,465 230,520 C250,548 245,565 245,582" fill="none"/>
    <path id="riverRight"      d="M275,18 C335,80 205,150 250,230 C290,300 345,320 315,390 C285,455 215,465 260,520 C280,548 275,565 275,582" fill="none"/>
    <path id="riverFarLeft"    d="M230,18 C290,80 160,150 205,230 C245,300 300,320 270,390 C240,455 170,465 215,520 C235,548 230,565 230,582" fill="none"/>
    <path id="riverFarRight"   d="M290,18 C350,80 220,150 265,230 C305,300 360,320 330,390 C300,455 230,465 275,520 C295,548 290,565 290,582" fill="none"/>
  </defs>
  <polygon points="260,18 484,143 484,457 260,582 36,457 36,143" fill="url(#bgGrad)" stroke="#1a4a5e" stroke-width="3"/>
  <g clip-path="url(#hexClip)" opacity="0.07">
    <line x1="36" y1="120" x2="484" y2="120" stroke="#4ecdc4" stroke-width="0.8"/>
    <line x1="36" y1="160" x2="484" y2="160" stroke="#4ecdc4" stroke-width="0.8"/>
    <line x1="36" y1="200" x2="484" y2="200" stroke="#4ecdc4" stroke-width="0.8"/>
    <line x1="36" y1="240" x2="484" y2="240" stroke="#4ecdc4" stroke-width="0.8"/>
    <line x1="36" y1="280" x2="484" y2="280" stroke="#4ecdc4" stroke-width="0.8"/>
    <line x1="36" y1="320" x2="484" y2="320" stroke="#4ecdc4" stroke-width="0.8"/>
    <line x1="36" y1="360" x2="484" y2="360" stroke="#4ecdc4" stroke-width="0.8"/>
    <line x1="36" y1="400" x2="484" y2="400" stroke="#4ecdc4" stroke-width="0.8"/>
    <line x1="36" y1="440" x2="484" y2="440" stroke="#4ecdc4" stroke-width="0.8"/>
    <line x1="36" y1="480" x2="484" y2="480" stroke="#4ecdc4" stroke-width="0.8"/>
    <line x1="36" y1="520" x2="484" y2="520" stroke="#4ecdc4" stroke-width="0.8"/>
  </g>
  <path d="M220,18 C280,80 150,150 195,230 C235,300 290,320 260,390 C230,455 160,465 205,520 C225,548 220,565 220,582 L300,582 C300,565 305,548 285,520 C240,465 310,455 340,390 C370,320 315,300 275,230 C230,150 360,80 300,18 Z" fill="#1a6b7a" opacity="0.28" clip-path="url(#hexClip)" filter="url(#riverGlow)"/>
  <path d="M220,18 C280,80 150,150 195,230 C235,300 290,320 260,390 C230,455 160,465 205,520 C225,548 220,565 220,582 L300,582 C300,565 305,548 285,520 C240,465 310,455 340,390 C370,320 315,300 275,230 C230,150 360,80 300,18 Z" fill="url(#riverGrad)" clip-path="url(#hexClip)"/>
  <path d="M220,18 C280,80 150,150 195,230 C235,300 290,320 260,390 C230,455 160,465 205,520 C225,548 220,565 220,582" fill="none" stroke="#4ecdc4" stroke-width="1.2" opacity="0.6" clip-path="url(#hexClip)"/>
  <path d="M300,18 C360,80 230,150 275,230 C315,300 370,320 340,390 C310,455 240,465 285,520 C305,548 300,565 300,582" fill="none" stroke="#4ecdc4" stroke-width="1.2" opacity="0.6" clip-path="url(#hexClip)"/>
  <path d="M200,18 C260,80 130,150 175,230 C215,300 270,320 240,390 C210,455 140,465 185,520 C205,548 200,565 200,582" fill="none" stroke="#4ecdc4" stroke-width="0.9" opacity="0.40" clip-path="url(#hexClip)"/>
  <path d="M320,18 C380,80 250,150 295,230 C335,300 390,320 360,390 C330,455 260,465 305,520 C325,548 320,565 320,582" fill="none" stroke="#4ecdc4" stroke-width="0.9" opacity="0.40" clip-path="url(#hexClip)"/>
  <path d="M175,18 C235,80 105,150 150,230 C190,300 245,320 215,390 C185,455 115,465 160,520 C180,548 175,565 175,582" fill="none" stroke="#4ecdc4" stroke-width="0.8" opacity="0.30" clip-path="url(#hexClip)"/>
  <path d="M345,18 C405,80 275,150 320,230 C360,300 415,320 385,390 C355,455 285,465 330,520 C350,548 345,565 345,582" fill="none" stroke="#4ecdc4" stroke-width="0.8" opacity="0.30" clip-path="url(#hexClip)"/>
  <path d="M145,18 C205,80 75,150 120,230 C160,300 215,320 185,390 C155,455 85,465 130,520 C150,548 145,565 145,582" fill="none" stroke="#4ecdc4" stroke-width="0.7" opacity="0.22" clip-path="url(#hexClip)"/>
  <path d="M375,18 C435,80 305,150 350,230 C390,300 445,320 415,390 C385,455 315,465 360,520 C380,548 375,565 375,582" fill="none" stroke="#4ecdc4" stroke-width="0.7" opacity="0.22" clip-path="url(#hexClip)"/>
  <path d="M110,18 C170,80 40,150 85,230 C125,300 180,320 150,390 C120,455 50,465 95,520 C115,548 110,565 110,582" fill="none" stroke="#4ecdc4" stroke-width="0.6" opacity="0.15" clip-path="url(#hexClip)"/>
  <path d="M410,18 C470,80 340,150 385,230 C425,300 480,320 450,390 C420,455 350,465 395,520 C415,548 410,565 410,582" fill="none" stroke="#4ecdc4" stroke-width="0.6" opacity="0.15" clip-path="url(#hexClip)"/>
  <path d="M70,18 C130,80 0,150 45,230 C85,300 140,320 110,390 C80,455 10,465 55,520 C75,548 70,565 70,582" fill="none" stroke="#4ecdc4" stroke-width="0.5" opacity="0.09" clip-path="url(#hexClip)"/>
  <path d="M450,18 C510,80 380,150 425,230 C465,300 484,320 484,370 C484,420 430,465 435,520 C450,548 450,565 450,582" fill="none" stroke="#4ecdc4" stroke-width="0.5" opacity="0.09" clip-path="url(#hexClip)"/>
  <text font-family="'Courier New', monospace" font-size="9" fill="#a8f0eb" opacity="0.90" clip-path="url(#hexClip)" filter="url(#binaryGlow)">
    <textPath href="#riverCentreLine" startOffset="0%">1 0 1 1 0 0 1 0 1 1 0 1 0 1 1 0 0 1<animate attributeName="startOffset" from="-20%" to="110%" dur="8s" repeatCount="indefinite"/></textPath>
  </text>
  <text font-family="'Courier New', monospace" font-size="9" fill="#6de0d8" opacity="0.75" clip-path="url(#hexClip)" filter="url(#binaryGlow)">
    <textPath href="#riverCentreLine" startOffset="0%">0 1 0 0 1 1 0 1 0 0 1 0 1 0 0 1 1 0<animate attributeName="startOffset" from="-50%" to="110%" dur="8s" begin="-2.5s" repeatCount="indefinite"/></textPath>
  </text>
  <text font-family="'Courier New', monospace" font-size="9" fill="#c5f5f2" opacity="0.60" clip-path="url(#hexClip)">
    <textPath href="#riverCentreLine" startOffset="0%">1 1 0 1 0 1 1 0 0 1 0 1 1 1 0 1 0 0<animate attributeName="startOffset" from="-75%" to="110%" dur="8s" begin="-5s" repeatCount="indefinite"/></textPath>
  </text>
  <text font-family="'Courier New', monospace" font-size="9" fill="#4ecdc4" opacity="0.45" clip-path="url(#hexClip)">
    <textPath href="#riverCentreLine" startOffset="0%">0 0 1 0 1 0 0 1 1 0 1 1 0 0 1 0 1 1<animate attributeName="startOffset" from="-35%" to="110%" dur="9s" begin="-7s" repeatCount="indefinite"/></textPath>
  </text>
  <text font-family="'Courier New', monospace" font-size="8" fill="#7ee8e0" opacity="0.70" clip-path="url(#hexClip)" filter="url(#binaryGlow)">
    <textPath href="#riverLeft" startOffset="0%">1 0 0 1 0 1 1 0 1 0 0 1 0 1 0 1 1 0<animate attributeName="startOffset" from="-15%" to="110%" dur="9s" begin="-1s" repeatCount="indefinite"/></textPath>
  </text>
  <text font-family="'Courier New', monospace" font-size="8" fill="#a8f0eb" opacity="0.55" clip-path="url(#hexClip)">
    <textPath href="#riverLeft" startOffset="0%">0 1 1 0 0 1 0 1 1 0 0 1 1 0 1 0 0 1<animate attributeName="startOffset" from="-60%" to="110%" dur="9s" begin="-4s" repeatCount="indefinite"/></textPath>
  </text>
  <text font-family="'Courier New', monospace" font-size="8" fill="#4ecdc4" opacity="0.40" clip-path="url(#hexClip)">
    <textPath href="#riverLeft" startOffset="0%">1 1 0 0 1 0 1 0 0 1 1 0 1 1 0 0 1 0<animate attributeName="startOffset" from="-85%" to="110%" dur="9s" begin="-7.5s" repeatCount="indefinite"/></textPath>
  </text>
  <text font-family="'Courier New', monospace" font-size="8" fill="#7ee8e0" opacity="0.70" clip-path="url(#hexClip)" filter="url(#binaryGlow)">
    <textPath href="#riverRight" startOffset="0%">0 1 0 1 1 0 0 1 0 1 0 0 1 1 0 1 0 1<animate attributeName="startOffset" from="-30%" to="110%" dur="9.5s" begin="-2s" repeatCount="indefinite"/></textPath>
  </text>
  <text font-family="'Courier New', monospace" font-size="8" fill="#c5f5f2" opacity="0.55" clip-path="url(#hexClip)">
    <textPath href="#riverRight" startOffset="0%">1 0 1 0 0 1 1 0 1 1 0 0 1 0 1 0 1 1<animate attributeName="startOffset" from="-65%" to="110%" dur="9.5s" begin="-5.5s" repeatCount="indefinite"/></textPath>
  </text>
  <text font-family="'Courier New', monospace" font-size="8" fill="#4ecdc4" opacity="0.38" clip-path="url(#hexClip)">
    <textPath href="#riverRight" startOffset="0%">0 0 1 1 0 1 0 0 1 0 1 1 0 0 1 1 0 1<animate attributeName="startOffset" from="-90%" to="110%" dur="9.5s" begin="-8s" repeatCount="indefinite"/></textPath>
  </text>
  <text font-family="'Courier New', monospace" font-size="7.5" fill="#4ecdc4" opacity="0.35" clip-path="url(#hexClip)">
    <textPath href="#riverFarLeft" startOffset="0%">1 0 0 1 1 0 1 0 1 1 0 0 1 0 0 1 1 0<animate attributeName="startOffset" from="-40%" to="110%" dur="10s" begin="-3s" repeatCount="indefinite"/></textPath>
  </text>
  <text font-family="'Courier New', monospace" font-size="7.5" fill="#3ab8b0" opacity="0.25" clip-path="url(#hexClip)">
    <textPath href="#riverFarLeft" startOffset="0%">0 1 1 0 1 0 0 1 0 1 0 1 1 0 0 1 0 1<animate attributeName="startOffset" from="-80%" to="110%" dur="10s" begin="-8s" repeatCount="indefinite"/></textPath>
  </text>
  <text font-family="'Courier New', monospace" font-size="7.5" fill="#4ecdc4" opacity="0.35" clip-path="url(#hexClip)">
    <textPath href="#riverFarRight" startOffset="0%">0 1 0 0 1 0 1 1 0 1 0 0 1 1 0 1 0 0<animate attributeName="startOffset" from="-55%" to="110%" dur="10.5s" begin="-1.5s" repeatCount="indefinite"/></textPath>
  </text>
  <text font-family="'Courier New', monospace" font-size="7.5" fill="#3ab8b0" opacity="0.25" clip-path="url(#hexClip)">
    <textPath href="#riverFarRight" startOffset="0%">1 1 0 1 0 1 0 0 1 0 1 1 0 1 0 0 1 0<animate attributeName="startOffset" from="-90%" to="110%" dur="10.5s" begin="-6s" repeatCount="indefinite"/></textPath>
  </text>
  <text x="260" y="490" text-anchor="middle" font-family="Georgia, 'Times New Roman', serif" font-size="52" font-weight="bold" font-style="italic" fill="#e8f8f7" opacity="0.95" clip-path="url(#hexClip)" filter="url(#riverGlow)">reach</text>
  <text x="368" y="490" text-anchor="middle" font-family="'Courier New', monospace" font-size="22" font-weight="normal" fill="#4ecdc4" opacity="0.9" clip-path="url(#hexClip)">.io</text>
  <polygon points="260,18 484,143 484,457 260,582 36,457 36,143" fill="none" stroke="#4ecdc4" stroke-width="5" opacity="0.7"/>
  <polygon points="260,26 477,148 477,452 260,574 43,452 43,148" fill="none" stroke="#4ecdc4" stroke-width="1" opacity="0.2"/>
</svg>
